<svg class="svg-icon" style="width: 1em; height: 1em;vertical-align: middle;fill: currentColor;overflow: hidden;" viewBox="0 0 1024 1024" version="1.1" xmlns="http://www.w3.org/2000/svg"><path d="M938.666667 533.333333H341.333333a21.333333 21.333333 0 0 1 0-42.666666h597.333334a21.333333 21.333333 0 0 1 0 42.666666z m0-426.666666H341.333333a21.333333 21.333333 0 0 1 0-42.666667h597.333334a21.333333 21.333333 0 0 1 0 42.666667zM192 1024H106.666667a42.666667 42.666667 0 0 1-42.666667-42.666667v-85.333333a42.666667 42.666667 0 0 1 42.666667-42.666667h85.333333a42.666667 42.666667 0 0 1 42.666667 42.666667v85.333333a42.666667 42.666667 0 0 1-42.666667 42.666667z m0-106.666667a21.333333 21.333333 0 0 0-21.333333-21.333333H128a21.333333 21.333333 0 0 0-21.333333 21.333333v42.666667a21.333333 21.333333 0 0 0 21.333333 21.333333h42.666667a21.333333 21.333333 0 0 0 21.333333-21.333333v-42.666667z m0-320H106.666667a42.666667 42.666667 0 0 1-42.666667-42.666666v-85.333334a42.666667 42.666667 0 0 1 42.666667-42.666666h85.333333a42.666667 42.666667 0 0 1 42.666667 42.666666v85.333334a42.666667 42.666667 0 0 1-42.666667 42.666666z m0-106.666666a21.333333 21.333333 0 0 0-21.333333-21.333334H128a21.333333 21.333333 0 0 0-21.333333 21.333334v42.666666a21.333333 21.333333 0 0 0 21.333333 21.333334h42.666667a21.333333 21.333333 0 0 0 21.333333-21.333334v-42.666666zM192 170.666667H106.666667a42.666667 42.666667 0 0 1-42.666667-42.666667V42.666667a42.666667 42.666667 0 0 1 42.666667-42.666667h85.333333a42.666667 42.666667 0 0 1 42.666667 42.666667v85.333333a42.666667 42.666667 0 0 1-42.666667 42.666667z m0-106.666667a21.333333 21.333333 0 0 0-21.333333-21.333333H128a21.333333 21.333333 0 0 0-21.333333 21.333333v42.666667a21.333333 21.333333 0 0 0 21.333333 21.333333h42.666667a21.333333 21.333333 0 0 0 21.333333-21.333333V64z m149.333333 853.333333h597.333334a21.333333 21.333333 0 0 1 0 42.666667H341.333333a21.333333 21.333333 0 0 1 0-42.666667z"  /></svg>